# xmcd
#
# Track frame offsets: 
#        150
#        19250
#        41317
#        68097
#        82281
#        115823
#        132919
#        154731
#        173326
#
# Disc length: 2699 seconds
#
# Revision: 0
# Processed by: cddbd v1.5.2PL0 Copyright (c) Steve Scherf et al.
# Submitted via: ExactAudioCopy v0.99pb4
#
DISCID=6b0a8909
DTITLE=Mike Marshall - Mike Marshall's Big Trio
DYEAR=2009
DGENRE=Country
TTITLE0=House Camp
TTITLE1=Little Bears
TTITLE2=Three Dragons
TTITLE3=Honey Bee's Secret
TTITLE4=Sleeping Giant
TTITLE5=Back to the Castle
TTITLE6=Boston Girl
TTITLE7=The Princess
TTITLE8=Sweetsmill
EXTD=
EXTT0=
EXTT1=
EXTT2=
EXTT3=
EXTT4=
EXTT5=
EXTT6=
EXTT7=
EXTT8=
PLAYORDER=
